<svg width="18" height="16" fill="none" xmlns="http://www.w3.org/2000/svg"><g clip-path="url(#clip0_1_27)"><path d="M12.938 13.937a4.309 4.309 0 00-.703-2.156 4.486 4.486 0 00-1.657-1.508A4.612 4.612 0 008.36 9.72H4.938c-.792 0-1.523.185-2.195.554A4.613 4.613 0 00.36 13.937v1.14h12.578v-1.14zm-11.437 0a3.165 3.165 0 01.53-1.546 3.403 3.403 0 011.235-1.118 3.458 3.458 0 011.672-.414H8.36c.593 0 1.145.14 1.656.422.479.26.875.625 1.187 1.094.313.469.506.99.578 1.562H1.501zM6.64.922a3.43 3.43 0 00-1.766.477 3.557 3.557 0 00-1.289 1.289 3.428 3.428 0 00-.476 1.765c0 .636.159 1.227.476 1.774a3.54 3.54 0 001.29 1.296C5.416 7.841 6.005 8 6.64 8a3.47 3.47 0 001.773-.477A3.52 3.52 0 009.71 6.227a3.47 3.47 0 00.477-1.774c0-.666-.162-1.276-.485-1.828a3.356 3.356 0 00-1.28-1.25A3.595 3.595 0 006.64.922zm0 5.828c-.417 0-.8-.107-1.148-.32a2.324 2.324 0 01-.828-.867 2.461 2.461 0 01-.305-1.22c0-.416.104-.809.312-1.179a2.41 2.41 0 01.867-.89c.37-.224.78-.336 1.227-.336.417 0 .807.107 1.172.32.364.214.659.503.883.867.224.365.336.771.336 1.219-.032.458-.162.87-.391 1.234A2.463 2.463 0 016.64 6.75zM10.078.922H9.5c.073 0 .167.018.282.055.114.036.213.055.296.055.448.145.854.388 1.22.726.364.339.65.732.858 1.18.209.448.313.916.313 1.406 0 .49-.104.958-.313 1.406a3.758 3.758 0 01-.859 1.18c-.365.338-.77.58-1.219.726a1.985 1.985 0 01-.296.117 1.478 1.478 0 00-.282.118h.578c.636 0 1.224-.162 1.766-.485a3.619 3.619 0 001.289-1.297c.318-.541.477-1.13.477-1.765a3.641 3.641 0 00-.524-1.75c-.318-.52-.74-.93-1.266-1.227a3.483 3.483 0 00-1.742-.445zm6.281 13.015a4.613 4.613 0 00-2.382-3.664 4.478 4.478 0 00-2.196-.554h-1.14c.531 0 .911.036 1.14.11.646.155 1.23.447 1.75.874a4.64 4.64 0 011.235 1.563c.302.635.453 1.307.453 2.015v.797h1.14v-1.14z" fill="#fff"/></g><defs><clipPath id="clip0_1_27"><path fill="#fff" transform="matrix(1 0 0 -1 .36 16)" d="M0 0h17.14v16H0z"/></clipPath></defs></svg>