<svg width="17" height="16" fill="none" xmlns="http://www.w3.org/2000/svg"><g clip-path="url(#clip0_1_21)"><path d="M9.141.031L9.126.016h-.094C8.76.006 8.454 0 8.11 0H2.141A2.012 2.012 0 00.704.602a2.104 2.104 0 00-.438.664c-.104.25-.156.51-.156.78v11.907A2.029 2.029 0 002.141 16h8.938a2.029 2.029 0 002.047-2.047V4.016L9.14.03zm.016 3V1.187l2.781 2.782h-1.844a.904.904 0 01-.664-.274.904.904 0 01-.273-.664zm.937 2.047h1.922v8.875c0 .26-.09.482-.273.664a.904.904 0 01-.664.274H2.14a.886.886 0 01-.648-.274.904.904 0 01-.274-.664V2.047c0-.26.092-.482.274-.664a.886.886 0 01.648-.274h5.89c0 .594.006 1.188.016 1.782v.14c0 .271.053.534.157.79.104.255.252.476.445.663.193.188.414.334.664.438.25.104.51.156.781.156zm-6.453 6.953h5.953c.105 0 .2-.023.29-.07a.547.547 0 000-.969.608.608 0 00-.29-.07H3.641c-.104 0-.2.023-.289.07a.546.546 0 000 .969.61.61 0 00.29.07zm0-2.984h5.953a.53.53 0 00.547-.547.53.53 0 00-.547-.547H3.641a.556.556 0 00-.398.156.517.517 0 00-.164.391c0 .156.054.286.164.39.11.105.242.157.398.157z" fill="#fff"/></g><defs><clipPath id="clip0_1_21"><path fill="#fff" transform="matrix(1 0 0 -1 .11 16)" d="M0 0h16v16H0z"/></clipPath></defs></svg>