<svg width="17" height="16" fill="none" xmlns="http://www.w3.org/2000/svg"><g clip-path="url(#clip0_1_15)"><path d="M7.058 15.594H3.183c-.417 0-.805-.104-1.164-.313a2.303 2.303 0 01-.852-.851 2.282 2.282 0 01-.312-1.164V2.734c0-.416.104-.804.312-1.164.209-.36.493-.643.852-.851.36-.209.747-.313 1.164-.313h8.688c.427 0 .82.104 1.18.313.359.208.643.492.85.851.21.36.313.748.313 1.164V7.11c0 .084-.02.162-.062.235a.44.44 0 01-.18.172.509.509 0 01-.242.062.465.465 0 01-.234-.062.516.516 0 01-.18-.172.425.425 0 01-.07-.235V2.734c0-.375-.133-.698-.399-.968a1.315 1.315 0 00-.976-.407H3.183c-.375 0-.698.136-.969.407-.27.27-.406.593-.406.968v10.532c0 .375.136.697.406.968.271.271.594.407.97.407h3.874a.45.45 0 01.328.14c.094.094.14.206.14.336a.47.47 0 01-.132.336.442.442 0 01-.336.14zM3.183.516c-.396 0-.766.099-1.11.296A2.19 2.19 0 00.965 2.734v10.532c0 .396.1.765.297 1.109.198.344.469.615.813.813.343.197.713.296 1.11.296h3.874c.104 0 .19-.036.258-.109a.366.366 0 00-.008-.516.344.344 0 00-.25-.109H3.183c-.406 0-.755-.146-1.047-.438a1.428 1.428 0 01-.437-1.046V2.734c0-.406.146-.755.437-1.046.292-.292.64-.438 1.047-.438h8.688c.416 0 .77.146 1.062.438.292.291.438.64.438 1.046V7.11a.36.36 0 00.101.25c.068.073.154.11.258.11.104 0 .19-.037.258-.11a.357.357 0 00.101-.25V2.734c0-.395-.099-.765-.296-1.109A2.19 2.19 0 0011.87.515H3.183zM.73 2.734c0-.437.112-.846.336-1.226.224-.38.523-.68.898-.899a2.377 2.377 0 011.22-.328h8.687c.447 0 .859.112 1.234.336.375.224.672.524.89.899.22.375.329.78.329 1.218V7.11a.602.602 0 01-.078.297.553.553 0 01-.22.219.603.603 0 01-.593 0 .552.552 0 01-.219-.219.602.602 0 01-.078-.297V2.734c0-.343-.122-.64-.367-.89a1.209 1.209 0 00-.898-.375H3.183c-.344 0-.64.125-.89.375s-.376.547-.376.89v10.532c0 .343.125.638.375.882.25.245.547.368.891.368h3.875c.156 0 .294.06.414.18s.18.26.18.421a.59.59 0 01-.172.422.561.561 0 01-.422.18H3.183c-.437 0-.844-.112-1.219-.336a2.559 2.559 0 01-.898-.899 2.335 2.335 0 01-.336-1.218V2.734zm6.61 1.829H3.948a.465.465 0 01-.235-.063.44.44 0 01-.172-.18.508.508 0 01-.062-.242.46.46 0 01.062-.234.515.515 0 01.172-.18.426.426 0 01.235-.07h3.39a.45.45 0 01.328.14.469.469 0 01.141.344.47.47 0 01-.14.344.45.45 0 01-.329.14zm0 2.562H3.948a.45.45 0 01-.328-.14.468.468 0 01-.141-.344.47.47 0 01.14-.344.45.45 0 01.329-.14h3.39a.45.45 0 01.328.14.467.467 0 01.141.344c0 .135-.047.25-.14.343a.45.45 0 01-.329.141zm3.843 8.469a3.758 3.758 0 01-1.93-.516 3.83 3.83 0 01-1.398-1.398 3.744 3.744 0 01-.516-1.922c0-.693.172-1.333.516-1.922a3.831 3.831 0 011.398-1.399 3.744 3.744 0 011.922-.515 3.74 3.74 0 011.922.516 3.83 3.83 0 011.399 1.398c.343.588.515 1.23.515 1.922 0 .693-.172 1.333-.515 1.922a3.83 3.83 0 01-1.399 1.398 3.73 3.73 0 01-1.914.516zm0-6.719c-.531 0-1.015.13-1.453.39a2.957 2.957 0 00-1.047 1.055 2.8 2.8 0 00-.39 1.446c0 .52.13 1 .39 1.437.26.438.61.787 1.047 1.047.438.26.92.39 1.445.39a2.78 2.78 0 001.446-.39c.437-.26.786-.61 1.046-1.047a2.76 2.76 0 00.391-1.437 2.8 2.8 0 00-.39-1.446 2.945 2.945 0 00-1.047-1.054 2.76 2.76 0 00-1.438-.391zm2.031 1.219l-2.687 1.203-1.188 2.39 2.391-1.203 1.484-2.39z" fill="#fff"/></g><defs><clipPath id="clip0_1_15"><path fill="#fff" transform="matrix(1 0 0 -1 .73 16)" d="M0 0h16v16H0z"/></clipPath></defs></svg>